<?xml version="1.0" encoding="utf-8"?>
<!-- Generator: Adobe Illustrator 24.3.0, SVG Export Plug-In . SVG Version: 6.00 Build 0)  -->
<svg version="1.0" id="katman_1" xmlns="http://www.w3.org/2000/svg" xmlns:xlink="http://www.w3.org/1999/xlink" x="0px" y="0px"
	 viewBox="0 0 2624 1934.22" style="enable-background:new 0 0 2624 1934.22;" xml:space="preserve">
<path d="M1003.41,810.52c15.74-3.52,27.91,0.87,40.25,9.92c87.88,64.41,176.21,128.2,264.41,192.16c2.34,1.7,4.86,3.16,9.21,5.97
	c0-5.1,0.01-8.84,0-12.58c-0.09-51-0.51-102.01-0.05-153.01c0.1-11.74-2.8-21.22-10.67-29.7c-2.8-3.02-4.49-7.08-8.6-13.78
	c17.02,0,31.18-0.21,45.31,0.36c1.29,0.05,3.28,5.08,3.4,7.86c0.43,10.18,0.25,20.4,0.21,30.6c-0.34,85.25,0.31,170.5-0.07,255.74
	c-0.02,3.91-0.35,7.82-0.56,12c-13.23,1.02-25.03,1.02-36.44-7.46c-90.26-67.03-181.17-133.16-271.91-199.54
	c-1.33-0.98-3.02-1.46-5.22-2.49c-0.31,2.19-0.65,3.52-0.66,4.85c-0.38,56.1-0.03,112.21,0.29,168.3c0.04,7.2,4.54,14.67,8.07,21.45
	c2.61,5,7,9.07,11.54,14.73c-16.33,0-32.32,0-48.51,0C1003.41,1014.34,1003.41,912.62,1003.41,810.52z"/>
<path d="M1734.12,885.65c-4.99-3.38-9.73-6.42-14.29-9.71c-40.44-29.16-85.36-43.46-135.19-38.12
	c-57.02,6.1-102.91,44.67-111.05,104.85c-6.26,46.25,4.61,86.35,40.8,117.61c18.26,15.78,40,24.12,63.67,27.77
	c56.54,8.73,105.57-9.14,150.24-42.43c1.43-1.07,2.91-2.09,4.4-3.08c0.24-0.16,0.67-0.02,1.02-0.02
	c5.81,18.77,2.89,27.22-12.61,37.86c-50.82,34.87-107.73,48.78-168.11,42.33c-68.67-7.34-122.43-40.29-149.06-106.74
	c-22.8-56.9-11.03-109.79,29.43-154.84c45.82-51.01,105.49-65.54,171.66-58.8c41.2,4.2,79.21,17.79,113.91,40.47
	C1737.91,855.19,1740.22,861.39,1734.12,885.65z"/>
<path d="M753.18,881.25c-8.1,14.22-15.59,27.34-23.06,40.46c-29.93,52.58-59.51,105.35-90.04,157.58
	c-6.71,11.48-7.55,20.31,2.29,29.51c1.8,1.68,3.2,3.8,5.8,6.97c-19.97,0-38.58,0-58.47,0c1.28-2.87,2.29-5.72,3.74-8.33
	c53.39-96.26,106.91-192.44,160.08-288.82c4.31-7.81,9.58-10.18,18.11-10.75c18.31-1.22,30.5,2.28,40.57,21.35
	c44.21,83.66,90.79,166.07,136.53,248.92c6.79,12.3,13.74,24.5,21.28,37.92c-37.74,0-73.94,0-112.31,0
	c3.49-4.28,6.06-7.84,9.05-11.01c5.94-6.29,7.08-12.38,2.48-20.47c-37.33-65.6-74.32-131.39-111.44-197.11
	C756.79,885.69,755.35,884.15,753.18,881.25z"/>
<path d="M2117.79,880.06c-14.86,26.28-28.71,50.84-42.62,75.38c-22.15,39.07-43.61,78.57-66.85,116.97
	c-9.71,16.04-13.87,29.19,6.38,43.27c-22.28,0-41.07,0-61.46,0c8.91-16.2,17.3-31.65,25.85-47.01
	c46.15-82.87,92.48-165.64,138.28-248.7c4.82-8.74,10.65-10.47,19.8-11.29c19.63-1.76,30.6,5.05,40.42,23.33
	c50.24,93.49,102.36,185.96,153.81,278.8c0.68,1.23,1.05,2.64,1.95,4.94c-36.89,0-73.2,0-109.93,0c0.29-1.29,0.19-2.57,0.78-3.17
	c17.64-18.1,13.68-20.06,3.34-38.43c-34.49-61.28-69.01-122.53-103.54-183.79C2122.39,887.54,2120.65,884.81,2117.79,880.06z"/>
<path d="M550.17,1066.94c0,17.27,0,32.53,0,48.76c-86.3,0-172.34,0-259.5,0c0-101.5,0-202.91,0-305.25c31.52,0,63.01,0,97,0
	c-6.59,8.47-12.58,15.73-18.01,23.39c-2.14,3.02-4.28,6.93-4.31,10.45c-0.59,79.77,0.12,159.54-0.2,239.32
	c-0.01,1.4,0.42,2.8,0.8,5.12c3.62,0.17,7.14,0.48,10.67,0.48c40.07,0,79.15-0.51,119.2,0.14c16.6,0.27,31.68-1.14,43.42-14.54
	C541.73,1071.97,545.48,1070.25,550.17,1066.94z"/>
<path d="M1910.18,1115.97c-3.11,0.35-4.77,0.71-6.42,0.71c-29.79,0.03-60.57,0.02-91.26,0.02c-0.24-4.31-0.6-7.81-0.62-11.32
	c-0.3-82.64-0.91-165.29-0.51-247.93c0.07-14.51-3.53-26.14-13.18-36.45c-2.63-2.81-4.58-6.26-7.92-10.91
	c4.86-0.71,7.94-1.53,11.02-1.55c25.48-0.15,50.97,0.09,76.44-0.32c9.15-0.15,11.65,3.51,11.59,12.32
	c-0.55,80.82,0.76,161.65-0.35,242.46c-0.24,17.72,2.57,32.77,15.45,45.28C1906.34,1110.16,1907.69,1112.61,1910.18,1115.97z"/>
</svg>
